<svg height="65" width="44" viewBox="0 0 440 650"  xmlns="http://www.w3.org/2000/svg" xmlns:xlink="http://www.w3.org/1999/xlink" xml:space="preserve" xmlns:serif="http://www.serif.com/"><path d="M217.489,3.003c-1.194,3.986 -1.064,4.75 2.053,12.066c17.088,40.11 20.824,57.055 20.879,94.702c0.101,69.086 -22.779,114.511 -91.748,182.151c-66.898,65.61 -75.701,75.774 -89.653,103.51c-18.217,36.218 -22.236,80.557 -10.492,115.765c13.947,41.811 58.923,99.1 90.41,115.161l3.155,1.609l0.581,-16.972c2.507,-73.193 35.657,-138.467 106.335,-209.372c54.014,-54.188 76.3,-106.011 73.937,-171.933c-1.807,-50.393 -7.352,-64.413 -64.927,-164.127c-42.826,-74.17 -38.877,-68.075 -40.53,-62.56m-28.175,53.16c-8.406,49.482 -72.001,158.529 -152.282,261.119c-17.62,22.514 -33.2,63.284 -35.541,92.994l-0.656,8.329l2.772,0.696c3.947,0.99 4.986,-0.502 9.242,-13.288c14.714,-44.195 33.715,-68.863 110.812,-143.859c73.65,-71.643 93.95,-131.198 70.388,-206.5c-2.7,-8.629 -3.191,-8.577 -4.735,0.509m183.566,189.924c-1.882,4.117 -4.778,10.599 -6.437,14.404l-3.017,6.918l-13.973,6.701c-16.884,8.096 -16.874,6.664 -0.104,14.792l13.87,6.723l6.233,13.881c7.623,16.979 6.887,16.959 14.325,0.389l6.123,-13.639l13.946,-7.114c16.767,-8.552 16.768,-6.692 -0.005,-15.244l-13.951,-7.114l-5.936,-13.211c-7.491,-16.672 -7.022,-16.355 -11.074,-7.486m24.56,98.029c-128.595,76.566 -202.978,167.396 -210.918,257.554c-2.736,31.075 18.853,50.21 54.363,48.183c149.135,-8.509 240.598,-164.209 178.117,-303.216c-5.9,-13.124 -4.108,-12.914 -21.562,-2.521" style="fill:#04acfc;"/></svg>