<svg xmlns="http://www.w3.org/2000/svg" version="1.1" xmlns:xlink="http://www.w3.org/1999/xlink"
    xmlns:svgjs="http://svgjs.dev/svgjs" viewBox="0 0 800 600" width="100%" height="100%"
    preserveAspectRatio="none" opacity="0.3">
    <defs>
        <linearGradient gradientTransform="rotate(270)" x1="50%" y1="0%" x2="50%" y2="100%"
            id="sssquiggly-grad">
            <stop stop-color="hsla(197, 82%, 54%, 1.00)" stop-opacity="1" offset="0%"></stop>
            <stop stop-color="hsla(230, 67%, 42%, 1.00)" stop-opacity="1" offset="100%"></stop>
        </linearGradient>
    </defs>
    <g stroke-width="1.5" stroke="url(#sssquiggly-grad)" fill="none" stroke-linecap="round"
        transform="matrix(1,0,0,1,-5,270.7792205810547)">
        <path
            d="M10,10C28.75,18.541666666666664,60.416666666666664,56.833333333333336,100,51C139.58333333333334,45.166666666666664,158.33333333333331,-12.166666666666666,200,-18C241.66666666666669,-23.833333333333336,258.3333333333333,23.416666666666668,300,23C341.6666666666667,22.583333333333332,358.3333333333333,-20.416666666666668,400,-20C441.6666666666667,-19.583333333333332,458.3333333333333,32.708333333333336,500,25C541.6666666666666,17.291666666666664,558.3333333333334,-61.166666666666664,600,-57C641.6666666666666,-52.833333333333336,658.3333333333334,38.75,700,45C741.6666666666666,51.25,779.1666666666666,-12,800,-27"></path>
        <path
            d="M10,10C28.75,18.541666666666664,60.416666666666664,56.833333333333336,100,51C139.58333333333334,45.166666666666664,158.33333333333331,-12.166666666666666,200,-18C241.66666666666669,-23.833333333333336,258.3333333333333,23.416666666666668,300,23C341.6666666666667,22.583333333333332,358.3333333333333,-20.416666666666668,400,-20C441.6666666666667,-19.583333333333332,458.3333333333333,32.708333333333336,500,25C541.6666666666666,17.291666666666664,558.3333333333334,-61.166666666666664,600,-57C641.6666666666666,-52.833333333333336,658.3333333333334,38.75,700,45C741.6666666666666,51.25,779.1666666666666,-12,800,-27"
            transform="matrix(1,0,0,1,0,264)"></path>
        <path
            d="M10,10C28.75,18.541666666666664,60.416666666666664,56.833333333333336,100,51C139.58333333333334,45.166666666666664,158.33333333333331,-12.166666666666666,200,-18C241.66666666666669,-23.833333333333336,258.3333333333333,23.416666666666668,300,23C341.6666666666667,22.583333333333332,358.3333333333333,-20.416666666666668,400,-20C441.6666666666667,-19.583333333333332,458.3333333333333,32.708333333333336,500,25C541.6666666666666,17.291666666666664,558.3333333333334,-61.166666666666664,600,-57C641.6666666666666,-52.833333333333336,658.3333333333334,38.75,700,45C741.6666666666666,51.25,779.1666666666666,-12,800,-27"
            transform="matrix(1,0,0,1,0,242)"></path>
        <path
            d="M10,10C28.75,18.541666666666664,60.416666666666664,56.833333333333336,100,51C139.58333333333334,45.166666666666664,158.33333333333331,-12.166666666666666,200,-18C241.66666666666669,-23.833333333333336,258.3333333333333,23.416666666666668,300,23C341.6666666666667,22.583333333333332,358.3333333333333,-20.416666666666668,400,-20C441.6666666666667,-19.583333333333332,458.3333333333333,32.708333333333336,500,25C541.6666666666666,17.291666666666664,558.3333333333334,-61.166666666666664,600,-57C641.6666666666666,-52.833333333333336,658.3333333333334,38.75,700,45C741.6666666666666,51.25,779.1666666666666,-12,800,-27"
            transform="matrix(1,0,0,1,0,220)"></path>
        <path
            d="M10,10C28.75,18.541666666666664,60.416666666666664,56.833333333333336,100,51C139.58333333333334,45.166666666666664,158.33333333333331,-12.166666666666666,200,-18C241.66666666666669,-23.833333333333336,258.3333333333333,23.416666666666668,300,23C341.6666666666667,22.583333333333332,358.3333333333333,-20.416666666666668,400,-20C441.6666666666667,-19.583333333333332,458.3333333333333,32.708333333333336,500,25C541.6666666666666,17.291666666666664,558.3333333333334,-61.166666666666664,600,-57C641.6666666666666,-52.833333333333336,658.3333333333334,38.75,700,45C741.6666666666666,51.25,779.1666666666666,-12,800,-27"
            transform="matrix(1,0,0,1,0,198)"></path>
        <path
            d="M10,10C28.75,18.541666666666664,60.416666666666664,56.833333333333336,100,51C139.58333333333334,45.166666666666664,158.33333333333331,-12.166666666666666,200,-18C241.66666666666669,-23.833333333333336,258.3333333333333,23.416666666666668,300,23C341.6666666666667,22.583333333333332,358.3333333333333,-20.416666666666668,400,-20C441.6666666666667,-19.583333333333332,458.3333333333333,32.708333333333336,500,25C541.6666666666666,17.291666666666664,558.3333333333334,-61.166666666666664,600,-57C641.6666666666666,-52.833333333333336,658.3333333333334,38.75,700,45C741.6666666666666,51.25,779.1666666666666,-12,800,-27"
            transform="matrix(1,0,0,1,0,176)"></path>
        <path
            d="M10,10C28.75,18.541666666666664,60.416666666666664,56.833333333333336,100,51C139.58333333333334,45.166666666666664,158.33333333333331,-12.166666666666666,200,-18C241.66666666666669,-23.833333333333336,258.3333333333333,23.416666666666668,300,23C341.6666666666667,22.583333333333332,358.3333333333333,-20.416666666666668,400,-20C441.6666666666667,-19.583333333333332,458.3333333333333,32.708333333333336,500,25C541.6666666666666,17.291666666666664,558.3333333333334,-61.166666666666664,600,-57C641.6666666666666,-52.833333333333336,658.3333333333334,38.75,700,45C741.6666666666666,51.25,779.1666666666666,-12,800,-27"
            transform="matrix(1,0,0,1,0,154)"></path>
        <path
            d="M10,10C28.75,18.541666666666664,60.416666666666664,56.833333333333336,100,51C139.58333333333334,45.166666666666664,158.33333333333331,-12.166666666666666,200,-18C241.66666666666669,-23.833333333333336,258.3333333333333,23.416666666666668,300,23C341.6666666666667,22.583333333333332,358.3333333333333,-20.416666666666668,400,-20C441.6666666666667,-19.583333333333332,458.3333333333333,32.708333333333336,500,25C541.6666666666666,17.291666666666664,558.3333333333334,-61.166666666666664,600,-57C641.6666666666666,-52.833333333333336,658.3333333333334,38.75,700,45C741.6666666666666,51.25,779.1666666666666,-12,800,-27"
            transform="matrix(1,0,0,1,0,132)"></path>
        <path
            d="M10,10C28.75,18.541666666666664,60.416666666666664,56.833333333333336,100,51C139.58333333333334,45.166666666666664,158.33333333333331,-12.166666666666666,200,-18C241.66666666666669,-23.833333333333336,258.3333333333333,23.416666666666668,300,23C341.6666666666667,22.583333333333332,358.3333333333333,-20.416666666666668,400,-20C441.6666666666667,-19.583333333333332,458.3333333333333,32.708333333333336,500,25C541.6666666666666,17.291666666666664,558.3333333333334,-61.166666666666664,600,-57C641.6666666666666,-52.833333333333336,658.3333333333334,38.75,700,45C741.6666666666666,51.25,779.1666666666666,-12,800,-27"
            transform="matrix(1,0,0,1,0,110)"></path>
        <path
            d="M10,10C28.75,18.541666666666664,60.416666666666664,56.833333333333336,100,51C139.58333333333334,45.166666666666664,158.33333333333331,-12.166666666666666,200,-18C241.66666666666669,-23.833333333333336,258.3333333333333,23.416666666666668,300,23C341.6666666666667,22.583333333333332,358.3333333333333,-20.416666666666668,400,-20C441.6666666666667,-19.583333333333332,458.3333333333333,32.708333333333336,500,25C541.6666666666666,17.291666666666664,558.3333333333334,-61.166666666666664,600,-57C641.6666666666666,-52.833333333333336,658.3333333333334,38.75,700,45C741.6666666666666,51.25,779.1666666666666,-12,800,-27"
            transform="matrix(1,0,0,1,0,88)"></path>
        <path
            d="M10,10C28.75,18.541666666666664,60.416666666666664,56.833333333333336,100,51C139.58333333333334,45.166666666666664,158.33333333333331,-12.166666666666666,200,-18C241.66666666666669,-23.833333333333336,258.3333333333333,23.416666666666668,300,23C341.6666666666667,22.583333333333332,358.3333333333333,-20.416666666666668,400,-20C441.6666666666667,-19.583333333333332,458.3333333333333,32.708333333333336,500,25C541.6666666666666,17.291666666666664,558.3333333333334,-61.166666666666664,600,-57C641.6666666666666,-52.833333333333336,658.3333333333334,38.75,700,45C741.6666666666666,51.25,779.1666666666666,-12,800,-27"
            transform="matrix(1,0,0,1,0,66)"></path>
        <path
            d="M10,10C28.75,18.541666666666664,60.416666666666664,56.833333333333336,100,51C139.58333333333334,45.166666666666664,158.33333333333331,-12.166666666666666,200,-18C241.66666666666669,-23.833333333333336,258.3333333333333,23.416666666666668,300,23C341.6666666666667,22.583333333333332,358.3333333333333,-20.416666666666668,400,-20C441.6666666666667,-19.583333333333332,458.3333333333333,32.708333333333336,500,25C541.6666666666666,17.291666666666664,558.3333333333334,-61.166666666666664,600,-57C641.6666666666666,-52.833333333333336,658.3333333333334,38.75,700,45C741.6666666666666,51.25,779.1666666666666,-12,800,-27"
            transform="matrix(1,0,0,1,0,44)"></path>
        <path
            d="M10,10C28.75,18.541666666666664,60.416666666666664,56.833333333333336,100,51C139.58333333333334,45.166666666666664,158.33333333333331,-12.166666666666666,200,-18C241.66666666666669,-23.833333333333336,258.3333333333333,23.416666666666668,300,23C341.6666666666667,22.583333333333332,358.3333333333333,-20.416666666666668,400,-20C441.6666666666667,-19.583333333333332,458.3333333333333,32.708333333333336,500,25C541.6666666666666,17.291666666666664,558.3333333333334,-61.166666666666664,600,-57C641.6666666666666,-52.833333333333336,658.3333333333334,38.75,700,45C741.6666666666666,51.25,779.1666666666666,-12,800,-27"
            transform="matrix(1,0,0,1,0,22)"></path>
    </g>
</svg>